{"title":"Push[2009]DvDRip[Eng]-Uvall","uid":5051057,"size":1262833124,"categoryP":"video","categoryS":"movies","magnet":"?xt=urn:btih:6c442f5a48d11f8cf8197290b91b992e6a5fd9c3&amp;dn=Push%5B2009%5DDvDRip%5BEng%5D-Uvall&amp;tr=udp%3A%2F%2Ftracker.openbittorrent.com%3A80&amp;tr=udp%3A%2F%2Fopen.demonii.com%3A1337&amp;tr=udp%3A%2F%2Ftracker.coppersurfer.tk%3A6969&amp;tr=udp%3A%2F%2Fexodus.desync.com%3A6969","seeders":0,"leechers":1,"uploader":"Uvall","files":5,"time":1250180396,"description":"~~~~~~~~~~~~~~~~~~~~~~~~~~~~~~~~~~~~~~~~~~~~~~~~~~~~~~~~~~~~~~~~~~~\nTitle: Push[2009]\n~~~~~~~~~~~~~~~~~~~~~~~~~~~~~~~~~~~~~~~~~~~~~~~~~~~~~~~~~~~~~~~~~~~\n~~~~~~~~~~~~~~~~~~~~~~~~~~~~~~~~~~~~~~~~~~~~~~~~~~~~~~~~~~~~~~~~~~~\nRelease Notes\n\nGenre: Action | Drama | Sci-Fi | Thriller\n\nRated: PG-13 for intense sequences of violence and action, brief strong language, \n        smoking and a scene of teen drinking.\n\nMovie Information: http://www.imdb.com/title/tt0465580/\n\nPlot: Two young Americans with special abilities must race to find a girl in Hong \n      Kong before a shadowy government organization called Division does.\n\nFormat                           : AVI\nFormat/Info                      : Audio Video Interleave\nFile size                        : 1.17 GiB\nDuration                         : 1h 51mn\nOverall bit rate                 : 1 503 Kbps\nMovie name                       : Push[2009]DvDRip[Eng]-Uvall\nWriting application              : Lavf52.33.0\n\nVideo\nFormat                           : MPEG-4 Visual\nFormat profile                   : Simple@L3\nFormat settings, BVOP            : No\nFormat settings, QPel            : No\nFormat settings, GMC             : No warppoints\nFormat settings, Matrix          : Default (H.263)\nCodec ID                         : XVID\nCodec ID/Hint                    : XviD\nDuration                         : 1h 51mn\nBit rate                         : 1 044 Kbps\nWidth                            : 704 pixels\nHeight                           : 304 pixels\nDisplay aspect ratio             : 2.35:1\nFrame rate                       : 23.976 fps\nResolution                       : 24 bits\nColorimetry                      : 4:2:0\nScan type                        : Progressive\nBits/(Pixel*Frame)               : 0.203\nStream size                      : 832 MiB (69%)\nWriting library                  : XviD 1.2.1 (UTC 2008-12-04)\n\nAudio\nFormat                           : AC-3\nFormat/Info                      : Audio Coding 3\nCodec ID                         : 2000\nDuration                         : 1h 51mn\nBit rate mode                    : Constant\nBit rate                         : 448 Kbps\nChannel(s)                       : 6 channels\nChannel positions                : Front: L C R, Surround: L R, LFE\nSampling rate                    : 48.0 KHz\nStream size                      : 357 MiB (30%)\nAlignment                        : Aligned on interleaves\nInterleave, duration             : 32 ms (0.77 video frame)\nInterleave, preload duration     : 32 ms\n~~~~~~~~~~~~~~~~~~~~~~~~~~~~~~~~~~~~~~~~~~~~~~~~~~~~~~~~~~~~~~~~~~~\n~~~~~~~~~~~~~~~~~~~~~~~~~~~~~~~~~~~~~~~~~~~~~~~~~~~~~~~~~~~~~~~~~~~\nPosted By: Uvall\n~~~~~~~~~~~~~~~~~~~~~~~~~~~~~~~~~~~~~~~~~~~~~~~~~~~~~~~~~~~~~~~~~~~","torrent":{"xt":"urn:btih:6c442f5a48d11f8cf8197290b91b992e6a5fd9c3","amp;dn":"Push%5B2009%5DDvDRip%5BEng%5D-Uvall","amp;tr":["udp%3A%2F%2Ftracker.openbittorrent.com%3A80","udp%3A%2F%2Fopen.demonii.com%3A1337","udp%3A%2F%2Ftracker.coppersurfer.tk%3A6969","udp%3A%2F%2Fexodus.desync.com%3A6969"],"infoHash":"6c442f5a48d11f8cf8197290b91b992e6a5fd9c3","infoHashBuffer":{"type":"Buffer","data":[108,68,47,90,72,209,31,140,248,25,114,144,185,27,153,46,106,95,217,195]},"announce":[],"urlList":[]}}